# xmcd
#
# Track frame offsets: 
#        150
#        19038
#        34427
#        53090
#        70088
#        91905
#        105581
#        122111
#        136593
#        152094
#        166899
#        179540
#
# Disc length: 2586 seconds
#
# Revision: 0
# Processed by: cddbd v1.5.2PL0 Copyright (c) Steve Scherf et al.
# Submitted via: ExactAudioCopy v1.0b3
#
DISCID=960a180c
DTITLE=RANDY WALLER AND THE COUNTRY GENTLEMEN - ONE MILE EAST OF HAZEL
DTITLE=GREEN
DYEAR=2011
DGENRE=Bluegrass
TTITLE0=One Mile East Of Hazel Green
TTITLE1=The Dream
TTITLE2=Jack See Nock
TTITLE3=Cherokee Rose
TTITLE4=Caballo Diablo
TTITLE5=Mama's Song
TTITLE6=Ferry My Soul
TTITLE7=Miles and Miles Of Texas
TTITLE8=Oh Angel
TTITLE9=Old Kentucky Hillside
TTITLE10=My Foot Is On The Rock
TTITLE11=Beautiful
EXTD=
EXTT0=
EXTT1=
EXTT2=
EXTT3=
EXTT4=
EXTT5=
EXTT6=
EXTT7=
EXTT8=
EXTT9=
EXTT10=
EXTT11=
PLAYORDER=
